<?xml version="1.0" standalone="no"?>
<!DOCTYPE svg PUBLIC "-//W3C//DTD SVG 20010904//EN"
 "http://www.w3.org/TR/2001/REC-SVG-20010904/DTD/svg10.dtd">
<svg version="1.0" xmlns="http://www.w3.org/2000/svg"
 width="1280.000000pt" height="1280.000000pt" viewBox="0 0 1280.000000 1280.000000"
 preserveAspectRatio="xMidYMid meet">
<metadata>
Created by potrace 1.15, written by Peter Selinger 2001-2017
</metadata>
<g transform="translate(0.000000,1280.000000) scale(0.100000,-0.100000)"
fill="currentColor" stroke="none">
<path d="M4852 12499 c-509 -49 -919 -447 -998 -969 -33 -221 1 -456 97 -668
73 -163 231 -351 369 -440 83 -54 203 -101 280 -109 33 -3 60 -9 61 -12 1 -17
-627 -3121 -632 -3121 -4 0 -345 394 -759 876 -707 823 -752 878 -740 898 94
147 193 356 218 456 30 125 23 295 -18 455 -26 99 -105 266 -165 351 -223 312
-585 484 -936 445 -248 -28 -459 -130 -640 -310 -296 -295 -397 -716 -268
-1113 128 -395 473 -690 843 -724 l72 -6 779 -2214 c624 -1774 782 -2214 795
-2214 30 0 412 39 875 90 1248 136 1753 166 2665 157 907 -9 1853 -77 2939
-213 156 -19 284 -34 286 -32 1 2 354 984 785 2183 430 1199 788 2191 794
2204 9 20 27 28 106 47 424 101 751 447 825 873 61 346 -51 695 -302 944 -107
105 -170 150 -298 212 -172 83 -247 100 -445 99 -149 0 -174 -3 -255 -27 -393
-118 -673 -422 -766 -832 -9 -38 -13 -117 -13 -215 1 -133 5 -169 27 -252 31
-116 89 -245 152 -334 25 -36 42 -71 38 -77 -3 -7 -328 -398 -722 -871 -582
-699 -716 -855 -723 -840 -7 19 -508 3067 -508 3095 0 10 28 26 80 46 338 134
574 405 651 752 142 641 -262 1274 -891 1398 -91 18 -291 20 -380 4 -225 -41
-410 -135 -574 -291 -238 -227 -359 -512 -358 -845 0 -326 137 -642 370 -856
l65 -60 -17 -57 c-10 -31 -234 -726 -497 -1544 -263 -818 -479 -1490 -479
-1493 0 -3 -8 -5 -18 -5 -15 0 -67 146 -306 858 -159 471 -393 1168 -522 1549
l-233 692 57 33 c81 46 204 168 271 268 296 443 234 1044 -149 1430 -239 242
-561 361 -888 329z"/>
<path d="M6045 3484 c-739 -32 -1089 -60 -1995 -159 -272 -30 -592 -64 -710
-75 -118 -11 -248 -27 -288 -36 -202 -43 -391 -206 -507 -433 -148 -293 -218
-700 -232 -1358 l-6 -303 4281 0 4282 0 0 233 c-1 887 -124 1373 -418 1648
-119 111 -225 168 -390 209 -98 25 -652 94 -1197 150 -366 37 -1034 87 -1480
110 -197 11 -1184 21 -1340 14z"/>
</g>
</svg>
