<?xml version="1.0" encoding="utf-8"?>
<!-- Generator: Adobe Illustrator 16.0.0, SVG Export Plug-In . SVG Version: 6.00 Build 0)  -->
<!DOCTYPE svg PUBLIC "-//W3C//DTD SVG 1.1//EN" "http://www.w3.org/Graphics/SVG/1.1/DTD/svg11.dtd">
<svg version="1.1" xmlns="http://www.w3.org/2000/svg" xmlns:xlink="http://www.w3.org/1999/xlink" x="0px" y="0px" width="96px"
	 height="56px" viewBox="0 0 960 560" enable-background="new 0 0 960 560" xml:space="preserve">
<g id="Layer_1">
	<path fill="currentColor" d="M271.816,162.159c12.656,9.632,24.927,19.109,37.323,28.419c12.52,9.403,25.172,18.63,37.75,27.957
		c11.131,8.254,25.358,4.336,32.535-6.461c26.908-40.483,54.184-80.724,80.776-121.412c9.219-14.104,25.691-15.165,35.488-7.199
		c4.159,3.381,7.059,8.447,10.118,13.023c25.467,38.096,50.942,76.187,76.179,114.435c8.787,13.316,22.56,16.092,35.778,6.177
		c31.345-23.511,62.57-47.181,93.832-70.803c5.652-4.271,11.359-8.084,19.036-5.636c10.778,3.438,15.251,13.079,12.653,25.425
		c-2.232,10.609-3.492,21.424-5.155,32.152c-2.018,13.02-4.008,26.045-6.006,39.068c-1.648,10.738-3.276,21.479-4.939,32.215
		c-2.016,13.017-4.072,26.028-6.087,39.046c-1.634,10.562-3.232,21.128-4.846,31.692c-1.423,9.315-2.846,18.631-4.293,28.11
		c-153.948,0-307.539,0-461.646,0c-1.46-9.111-2.954-18.199-4.366-27.301c-2.02-13.023-3.96-26.059-5.972-39.084
		c-1.63-10.559-3.313-21.108-4.975-31.662c-2.104-13.364-4.266-26.718-6.294-40.093c-1.631-10.752-3.051-21.537-4.659-32.293
		c-1.578-10.563-3.547-21.076-4.817-31.674c-0.771-6.44-2.439-13.013,2.354-19.156c5.098-6.533,16.194-9.651,23.146-4.549
		C253.607,149.073,262.564,155.479,271.816,162.159z"/>
	<path fill="currentColor" d="M253.771,472.129c-1.338-3.83-3.255-7.328-3.315-10.857c-0.31-18.213-0.144-36.434-0.144-55.071
		c153.756,0,307.392,0,461.562,0c0,17.619-0.089,35.235,0.042,52.851c0.056,7.431-2.124,14.072-8.031,18.391
		c-3.955,2.891-9.166,5.741-13.821,5.751c-139.387,0.301-278.773,0.271-418.16,0.178
		C264.019,483.365,258.041,479.295,253.771,472.129z"/>
</g>
<g id="Layer_2" display="none">
	
		<image display="inline" overflow="visible" width="512" height="512" xlink:href="vip.png"  transform="matrix(0.7501 0 0 0.7501 304 79)">
	</image>
</g>
</svg>
