<svg width="48" height="48" viewBox="0 0 48 48" fill="none" xmlns="http://www.w3.org/2000/svg">
<path d="M28.333 10.6641C32.0667 10.6641 33.9343 10.664 35.3604 11.3906C36.6145 12.0297 37.6343 13.0495 38.2734 14.3037C39.0001 15.7298 39 17.5974 39 21.3311V23.3311C39 27.0645 39 28.9314 38.2734 30.3574C37.6344 31.6117 36.6145 32.6313 35.3604 33.2705C33.9343 33.9971 32.0667 33.9971 28.333 33.9971H16.3574C15.9154 33.9971 15.4913 34.1728 15.1787 34.4854L11.8447 37.8193C10.7948 38.8686 9.0002 38.1251 9 36.6406V21.3311C9 17.5974 8.99994 15.7298 9.72656 14.3037C10.3657 13.0495 11.3855 12.0297 12.6396 11.3906C14.0657 10.664 15.9333 10.6641 19.667 10.6641H28.333ZM19 23.998C18.0795 23.998 17.333 24.7446 17.333 25.665C17.3333 26.5853 18.0797 27.3311 19 27.3311H24L24.1699 27.3232C25.0104 27.2382 25.6667 26.5279 25.667 25.665C25.667 24.8019 25.0106 24.092 24.1699 24.0068L24 23.998H19ZM19 17.3311C18.0795 17.3311 17.333 18.0776 17.333 18.998C17.3331 19.9184 18.0796 20.665 19 20.665H29L29.1699 20.6562C30.0105 20.5711 30.6669 19.8611 30.667 18.998C30.667 18.1349 30.0106 17.425 29.1699 17.3398L29 17.3311H19Z" fill="url(#paint0_linear_24375_5581)"/>
<defs>
<linearGradient id="paint0_linear_24375_5581" x1="9" y1="24.4872" x2="39" y2="24.4872" gradientUnits="userSpaceOnUse">
<stop stop-color="#74A1FB"/>
<stop offset="1" stop-color="#C9DAFD"/>
</linearGradient>
</defs>
</svg>
